<svg width="200" height="200" viewBox="0 0 200 200" fill="none" xmlns="http://www.w3.org/2000/svg">
<path d="M66.1003 152.73C65.1903 151.25 62.3803 150.08 61.2003 151.67C58.8703 154.81 65.0703 159.67 66.3803 159.67C67.4803 159.52 73.0103 154.16 70.2303 151.33C69.0003 150.21 66.6803 151.44 66.1003 152.73ZM66.3303 159.15C64.0803 158.15 58.9503 152.6 62.3303 151.62C64.6203 150.95 65.5903 153.77 66.2203 153.47C66.2203 153.47 68.1403 150.47 69.7703 151.82C72.1603 153.83 67.0803 158.76 66.3303 159.15ZM81.8503 156.56C83.2003 155.56 82.8503 153.04 81.2703 151.43C77.6803 147.84 71.8903 151.31 73.9003 156.6C74.1339 157.194 74.5063 157.724 74.9864 158.144C75.4665 158.565 76.0404 158.865 76.66 159.019C77.2797 159.172 77.9271 159.176 78.5482 159.028C79.1694 158.88 79.7461 158.586 80.2303 158.17C80.7503 158.41 82.4003 159.17 82.7203 159.4C83.5003 159.89 82.8703 158.54 82.7903 158.4L81.8503 156.56ZM80.0803 157.75C77.9803 159.13 75.3203 158.75 74.4703 156.31C72.7703 151.49 77.7703 148.88 80.8703 151.8C81.4599 152.347 81.8367 153.085 81.9338 153.883C82.0308 154.681 81.8418 155.488 81.4003 156.16C81.1303 156.54 82.0103 158.05 82.2303 158.5C81.8303 158.31 80.2903 157.61 80.0803 157.75ZM128.35 149.81C128.27 150.43 128.21 158.41 128.79 158.1C130.315 157.012 131.691 155.727 132.88 154.28C134.21 155.56 135.88 156.52 137.31 157.86C138.1 158.62 137.74 155.69 137.31 149.69C137.26 149.23 128.43 149.13 128.35 149.81ZM132.65 153.7C131.4 154.99 130.29 156.18 128.97 157.41L128.91 149.99C131.577 149.99 134.244 149.973 136.91 149.94C136.91 152.29 137.08 154.62 137.18 156.94C136.73 156.54 132.94 153.4 132.65 153.7ZM94.7003 151C91.5803 150.75 87.9103 150.51 84.8203 150.58C84.6403 150.58 84.6203 150.82 84.7403 150.92C84.8603 151.02 87.9003 153.92 88.0703 154.03C88.1436 155.81 88.1436 157.59 88.0703 159.37C88.0703 159.7 88.3203 159.75 88.6203 159.37C90.9538 156.936 93.0438 154.28 94.8603 151.44C94.899 151.407 94.9266 151.363 94.9396 151.313C94.9525 151.264 94.9501 151.212 94.9328 151.164C94.9154 151.117 94.8838 151.075 94.8422 151.046C94.8007 151.016 94.7512 151 94.7003 151ZM88.3003 153.71C87.9803 152.91 86.1603 151.66 85.3603 151.03C87.3603 151.25 91.3603 151.38 93.5103 151.47C91.7193 152.079 89.9776 152.825 88.3003 153.7V153.71ZM88.6203 158.71C88.677 157.173 88.6436 155.633 88.5203 154.1C90.3303 153.44 92.1303 152.55 93.9703 151.86C91.1303 155.71 88.6203 158.6 88.6203 158.7V158.71ZM95.2503 65.6199C95.7803 65.6199 95.7903 64.6899 95.2503 64.6799C87.6303 64.5899 79.5603 64.3099 72.0203 64.6099C71.9221 64.6312 71.8341 64.6854 71.771 64.7637C71.7079 64.8419 71.6735 64.9394 71.6735 65.0399C71.6735 65.1404 71.7079 65.2378 71.771 65.316C71.8341 65.3943 71.9221 65.4486 72.0203 65.4699C79.756 65.9148 87.5094 65.9649 95.2503 65.6199Z" fill="black"/>
<path d="M137.71 117.12C137.66 113.12 137.29 81.43 137.13 75.83C137.05 75.5 132.62 75.72 132.04 75.72C131.9 75.22 131.74 74.7199 131.57 74.1999C131.57 73.9799 133.14 70.5899 129.89 69.6299C128.94 67.3899 125.57 60.84 122.54 61.39C119.51 61.94 113.68 71.62 112.4 75.12C111.84 75.3359 111.293 75.5829 110.76 75.86H97.0001C96.7601 75.4 96.5001 74.99 96.2401 74.54C93.2401 68.38 83.1301 68.05 78.4101 72.4C73.1501 77.25 73.7401 85.35 78.7201 90.12C79.7201 91.07 79.1001 92.3 77.7201 90.97C72.4301 85.97 71.7201 77.5699 76.6201 72.0899C74.6867 71.5574 72.6335 71.6584 70.7618 72.3783C68.89 73.0982 67.2983 74.3991 66.2201 76.0899C63.6601 76.0899 61.0901 76.0899 58.5301 76.1999C58.3401 76.1999 58.2601 76.5599 58.2601 76.6999C58.0201 85.6999 58.1701 94.81 58.1301 103.79C54.7701 106.02 55.7201 110.56 58.1301 113.19V120.73C55.925 125.756 55.1066 131.281 55.7601 136.73C56.7601 144.37 60.8901 147.73 69.1401 148.3C73.0001 148.56 84.0201 148.14 91.5901 145.91C92.4963 146.21 93.4374 146.391 94.3901 146.45C94.1501 147.86 95.8101 149.23 97.3901 148.94C97.3901 149.78 99.4501 150.69 101.13 149.41C101.045 150.785 101.095 152.165 101.28 153.53C101.91 155.85 103.39 154.53 104.02 152.73C104.692 150.664 104.95 148.486 104.78 146.32C115.56 146.7 126.78 146.39 137.61 146.39C137.8 146.39 138.06 145.98 138.06 145.84C138.007 140.68 137.95 135.52 137.89 130.36C139.94 126.4 139.1 121.15 137.71 117.12ZM131.93 85.12C134.07 83.99 132.69 78.1199 132.21 76.3099H136.7C136.52 89.0399 136.93 102.76 137.08 115.45C133.17 105.98 124.52 98.3699 115.86 93.0999C116.77 92.0999 117.52 91.3 116.48 90.87C117.67 89.74 117.18 88.51 116.36 88.19C116.74 87.54 116.78 86.39 115.86 86.19C116.015 85.9591 116.085 85.6819 116.06 85.4051C116.034 85.1283 115.914 84.8687 115.72 84.6699C115.98 84.5899 116.72 84.41 116.82 84.19C118.94 84.73 130.13 86.0599 131.93 85.0899V85.12ZM112.39 85.7799L114.61 85.0199C115.96 84.6899 115.89 86.23 113.42 87.43C112.87 87.69 112.13 88.0299 111.62 87.5899C112.81 87.4999 113.37 86.64 112.39 85.75V85.7799ZM115.58 86.57C117.03 87.02 114.93 89.46 113.44 89.33C112.75 89.27 112.87 88.81 112.79 88.33C113.87 88.0071 114.837 87.3868 115.58 86.54V86.57ZM109.33 86.98C109.33 87.65 109.75 88.9199 109.77 89.2099C109.767 89.976 109.713 90.7409 109.61 91.5C109.61 91.81 110.18 92.05 110.32 90.62C111.1 91.72 112.87 93.8199 114.32 93.9599C112.7 95.3399 108.63 95.4 106.67 94.65C106.39 93.32 105.54 89.9399 105.83 88.7099C106.42 87.1725 107.265 85.7458 108.33 84.4899C109.33 83.3899 109.88 84.4899 110.96 85.3099C111.09 85.4099 112.4 86.39 112.4 86.41C112.4 87.5 110.64 86.96 109.89 86.68C109.49 86.52 109.31 86.4 109.33 87V86.98ZM114.12 89.8899C114.916 89.6632 115.617 89.1864 116.12 88.5299C116.353 88.6968 116.511 88.9489 116.56 89.2316C116.609 89.5142 116.544 89.8047 116.38 90.04C115.64 91 113.57 91.31 114.12 89.86V89.8899ZM130.33 70.51C133.5 72.21 128.73 78.28 126.82 79.86C124.857 76.785 123.418 73.4058 122.56 69.86C124.85 69.89 128.33 69.41 130.33 70.48V70.51ZM121 63.06C120.14 69.6 125.93 81.5099 130 84.7399C125 84.8599 121.33 84.1799 116.6 83.6399C114.37 81.2699 112.88 79.19 112.77 75.73C115.18 70.89 117.05 67.07 121 63.06ZM112.07 75.94C112.41 78.94 113.64 82.09 116.07 83.94L115.07 84.3099C114.014 84.491 112.999 84.8566 112.07 85.3899L110.95 84.4899C110.06 83.7799 109.48 82.79 108.3 83.69C107.15 84.8757 106.216 86.253 105.54 87.76C104.862 88.0402 104.154 88.2415 103.43 88.36C101.49 86.56 100.78 82.53 100.95 81.25C101.16 80.93 111 76.45 112.08 75.94H112.07ZM109.5 76.4599C106.77 77.7499 103.8 79.0199 101.17 80.4599C100.86 80.6199 100.38 80.9699 100.31 81.3399C100.02 83.0599 101.31 87.9 103.09 88.75C103.63 89.13 104.75 88.75 105.36 88.5C104.98 90.27 105.74 92.99 106.12 94.8C105.7 95.01 106.55 98.08 106.67 98.57C104.67 97.91 99.5101 97 97.5501 97.79C97.4301 97.03 97.2701 96.2699 97.0901 95.5299C97.7246 95.2586 98.2948 94.8565 98.7635 94.3499C99.2321 93.8433 99.5888 93.2436 99.8101 92.5899C101.45 88.3799 99.2401 80.27 97.3201 76.48L109.5 76.4599ZM79.7401 86.37C80.2701 85.43 81.4101 86.2999 82.2401 86.0599C84.0801 85.5299 82.3601 80.3799 81.6301 79.3399C88.8901 74.9799 92.5401 75.2799 96.0901 75.3399C98.1901 79.4399 100.64 86.7699 99.4601 91.4499C99.3147 92.1856 98.9994 92.877 98.5393 93.4691C98.0792 94.0611 97.487 94.5374 96.8101 94.86C96.7101 94.86 96.3901 95.3 96.4301 95.44C96.9067 97.096 97.1127 98.8182 97.0401 100.54C96.8201 102.54 95.6901 104.67 93.4401 104.85C90.0201 105.13 85.7101 102.58 84.4401 99.32C84.4215 97.3475 84.2105 95.3815 83.8101 93.4499C83.3401 91.8799 81.9801 90.6099 80.9201 89.4499C79.8601 88.2899 79.1501 87.42 79.7401 86.37ZM58.8001 76.6699C61.1501 76.7499 63.5201 76.6699 65.8701 76.6699C64.8701 78.9199 65.6301 80.28 66.7901 82.23C68.2201 84.62 67.9001 86.31 65.1301 87.15C60.7801 88.5 57.3801 91.08 61.3401 95.57C62.6901 97.12 64.7101 99.1599 62.7801 101.17C61.6801 102.3 60.0701 102.68 58.6901 103.4C58.7301 96.63 58.8001 84.1899 58.8001 76.6699ZM58.6101 113.76L60.8501 115.5C59.9813 116.829 59.2093 118.22 58.5401 119.66C58.6101 117.66 58.6201 115.73 58.6201 113.76H58.6101ZM103.51 152.23C103.12 153.46 101.94 155.48 101.72 152.71C101.72 152.19 101.72 149.21 101.46 149.05C101.99 148.51 102.88 146.89 102.46 146.27C102.438 146.241 102.409 146.217 102.376 146.201C102.343 146.185 102.307 146.177 102.27 146.177C102.233 146.177 102.197 146.185 102.164 146.201C102.131 146.217 102.102 146.241 102.08 146.27C101.76 146.6 101.99 148.03 100.56 149.01C99.8001 149.52 98.2901 149.7 97.7301 148.8C98.2691 148.583 98.7523 148.248 99.1436 147.818C99.5349 147.389 99.8243 146.877 99.9901 146.32C100.07 145.82 99.6701 145.84 99.5601 146.01C99.1801 146.54 98.7501 148.19 97.0601 148.35C95.7101 148.48 95.1201 147.56 94.7501 146.46C97.4901 146.63 97.6701 145.46 97.1701 145.46C96.3831 145.823 95.5082 145.951 94.6501 145.83C93.6501 145.77 92.6501 145.58 91.6501 145.46C91.8601 142.69 92.4601 136.57 100.3 137.46C104.31 140.67 105 147.62 103.51 152.23ZM103.8 141.23C105.01 141.83 106.382 142.023 107.71 141.78C109.07 142.88 106 144.05 104.45 143.59C104.303 142.784 104.079 141.993 103.78 141.23H103.8ZM104.73 145.85C104.73 145.31 104.64 144.77 104.56 144.23C108.56 144.43 109.26 141.69 107.79 141.36C106.96 141.17 106.15 141.58 104.25 140.84C103.32 140.46 103.58 140.56 103.12 139.75C99.5801 133.51 85.9701 128.44 79.3601 127.4C80.1203 124.22 80.5393 120.969 80.6101 117.7C80.6101 117.46 80.2601 117.41 80.2301 117.65C79.9494 120.887 79.4314 124.099 78.6801 127.26C76.9552 127.03 75.2195 126.89 73.4801 126.84C73.2801 126.84 73.2601 127.37 73.4801 127.38C82.8595 127.937 91.8827 131.171 99.4801 136.7C94.2901 136.3 91.0301 140.34 91.2501 145.36C83.7701 147.46 74.4301 148.52 66.6201 147.42C60.4601 146.56 56.9301 142.73 56.2401 136.65C54.5401 122.08 63.9001 106 83.8201 99C84.3801 102.79 89.9201 105.75 93.4501 105.47C96.9801 105.19 97.9301 101.18 97.5801 98.1999C100.696 97.8898 103.843 98.2304 106.82 99.1999C107.549 101.883 108.554 104.484 109.82 106.96C109.1 106.13 107.45 104.4 106.54 103.44C106.05 102.93 105.44 103.25 106.06 103.93C109.697 107.752 112.968 111.907 115.83 116.34C121.13 125.3 124.378 135.324 125.34 145.69C118.54 145.69 111.51 145.52 104.71 145.78L104.73 145.85ZM126 145.76C125.7 142.391 125.152 139.048 124.36 135.76C128.9 135.67 134.36 135.32 137.24 131.3C137.3 136.113 137.357 140.927 137.41 145.74L126 145.76ZM136.68 131C133.81 134.85 128.6 135 124.22 135.11C121.71 125 117.66 117.4 111.61 109.11C110.41 107.35 105.97 96.3699 106.51 95.0299C110.3 96.2499 113.95 95.4299 115.51 93.3399C125.45 100.34 135.21 107.78 137.97 120.45C138.7 123.89 138.88 128.02 136.65 130.99L136.68 131ZM164 97.6299C163.19 100.97 168.2 101.45 168.76 98.7399C169.45 95.5299 164.76 94.6699 164 97.6299ZM41.0001 113.81C37.0001 115.47 32.7901 117.17 28.7601 118.61L32.0501 124C35.0501 122.06 37.9601 120 40.9501 118.18C40.9101 116.7 41.0001 115.26 41.0001 113.81ZM156.43 85.7099C154.89 83.1399 151.1 85.2099 152.16 87.7099C153.59 90.9999 158 88.3499 156.43 85.7099Z" fill="black"/>
<path d="M96.7302 79.48C96.5942 79.3997 96.4428 79.3489 96.2859 79.3308C96.129 79.3127 95.97 79.3277 95.8192 79.3748C95.6685 79.4219 95.5293 79.5001 95.4106 79.6043C95.2919 79.7086 95.1964 79.8365 95.1302 79.98C94.9802 80.41 95.6202 80.66 95.8602 80.33C95.9673 80.2271 96.0986 80.153 96.2419 80.1145C96.3853 80.0761 96.5361 80.0745 96.6802 80.11C97.0002 80.11 97.0902 79.7 96.7302 79.48ZM88.0502 77.71C87.5134 77.9765 87.0712 78.4013 86.7833 78.927C86.4954 79.4527 86.3757 80.0541 86.4402 80.65C86.4544 80.7339 86.4978 80.8101 86.5628 80.8651C86.6278 80.92 86.7101 80.9502 86.7952 80.9502C86.8803 80.9502 86.9627 80.92 87.0277 80.8651C87.0927 80.8101 87.1361 80.7339 87.1502 80.65C87.1661 80.2264 87.2987 79.8155 87.5334 79.4626C87.7681 79.1096 88.0958 78.8284 88.4802 78.65C89.5302 78.21 88.9302 77.36 88.0502 77.71ZM62.5102 60.31C57.1002 60.83 55.9902 68.61 61.2302 70.49C61.9775 70.7746 62.7797 70.8858 63.5762 70.8152C64.3728 70.7445 65.1429 70.4939 65.8284 70.0821C66.5139 69.6704 67.0969 69.1083 67.5335 68.4383C67.9701 67.7683 68.2487 67.0079 68.3485 66.2145C68.4483 65.4211 68.3665 64.6154 68.1094 63.8582C67.8523 63.101 67.4265 62.4121 66.8643 61.8434C66.302 61.2748 65.618 60.8413 64.8637 60.5757C64.1095 60.31 63.3047 60.2192 62.5102 60.31ZM61.6002 69.77C60.6945 69.46 59.9139 68.8644 59.3757 68.0727C58.8376 67.281 58.5711 66.336 58.6162 65.3798C58.6613 64.4236 59.0156 63.5078 59.6259 62.7703C60.2361 62.0327 61.0693 61.5133 62.0002 61.29C65.9002 60.36 69.1702 64.89 66.5202 68.2C65.9586 68.9328 65.1861 69.4761 64.3065 69.7568C63.4269 70.0375 62.4825 70.0421 61.6002 69.77ZM94.6302 77C94.9336 76.9692 95.2399 77.0081 95.5259 77.1138C95.8119 77.2195 96.0699 77.3893 96.2802 77.61C96.3365 77.6686 96.4125 77.7044 96.4935 77.7105C96.5746 77.7166 96.655 77.6925 96.7194 77.643C96.7839 77.5934 96.8277 77.5218 96.8426 77.4419C96.8576 77.362 96.8424 77.2794 96.8002 77.21C95.9802 75.91 94.0102 75.8 93.7302 76.47C93.6907 76.5292 93.6696 76.5988 93.6696 76.67C93.6696 76.7412 93.6907 76.8108 93.7302 76.87C93.9102 77.09 94.2902 77.06 94.6302 77ZM90.7302 81.52C91.4302 81.35 90.9602 80.42 89.9202 80.73C89.506 80.8309 89.1473 81.0891 88.9202 81.45C88.7202 81.87 89.2602 82.16 89.4802 81.87C89.9202 81.32 90.3402 81.61 90.7302 81.52ZM95.5402 86.36C92.8302 86.36 91.7902 86.2 90.5402 84.9C90.4002 84.75 89.9402 84.71 89.6902 85.21C89.4308 85.9783 89.3487 86.7954 89.4502 87.6C89.7802 91.65 96.2502 90.97 96.1602 86.76C96.2002 86.37 95.7402 86.37 95.5402 86.36ZM95.3702 87.16C95.2225 87.9075 94.7856 88.5665 94.1545 88.9935C93.5233 89.4205 92.7491 89.581 92.0002 89.44C90.8502 89.16 90.0002 88.03 90.3902 85.92C91.0921 86.4549 91.8959 86.8408 92.7522 87.054C93.6086 87.2672 94.4995 87.3033 95.3702 87.16ZM94.1802 79.73C94.119 79.6684 94.0371 79.6318 93.9503 79.6273C93.8636 79.6228 93.7783 79.6506 93.711 79.7055C93.6437 79.7603 93.5992 79.8383 93.5861 79.9241C93.573 80.0099 93.5923 80.0976 93.6402 80.17C94.1883 80.905 94.6958 81.6694 95.1602 82.46C95.4302 82.86 95.5402 83.11 95.5002 83.19C95.4602 83.27 95.0602 83.57 94.8802 83.85C94.8329 83.9444 94.8203 84.0525 94.8446 84.1553C94.869 84.2581 94.9287 84.349 95.0133 84.4122C95.098 84.4754 95.2022 84.5068 95.3076 84.5009C95.4131 84.495 95.5131 84.4522 95.5902 84.38C96.3702 83.51 96.7902 83.47 95.9802 82.15C95.4678 81.2817 94.8644 80.4705 94.1802 79.73ZM6.14022 105.73C7.72022 106.34 9.21022 106.98 10.7202 107.44C11.2702 107.6 11.5402 106.65 11.0002 106.44C9.42439 105.663 7.79726 104.995 6.13022 104.44C5.43022 104.45 5.12022 105.34 6.14022 105.73ZM15.8502 139.44C14.2002 140.65 12.6902 141.78 11.5002 142.71C10.8502 143.21 11.6402 144.21 12.3002 143.71C13.5702 142.71 15.0502 141.55 16.5602 140.32C16.6561 140.22 16.7123 140.088 16.7182 139.95C16.7241 139.811 16.6793 139.676 16.5923 139.568C16.5053 139.46 16.3819 139.387 16.2454 139.364C16.1088 139.34 15.9683 139.367 15.8502 139.44ZM20.1102 88.18C19.2702 86.6 18.0502 87.24 19.0002 88.77C19.6002 89.77 22.1102 94.18 22.7502 95C23.1302 95.48 23.8302 95 23.6202 94.44C23.2402 93.5 20.6602 89.21 20.1102 88.18ZM37.4302 84.69C37.3631 84.5717 37.26 84.4779 37.1359 84.4221C37.0119 84.3664 36.8732 84.3516 36.7402 84.38C36.5202 84.44 36.2702 84.69 36.3402 85.53C36.4702 87.39 36.6502 89.32 36.8602 91.29C36.8943 91.3954 36.9612 91.4872 37.0512 91.552C37.1411 91.6168 37.2494 91.6511 37.3602 91.65C37.4871 91.6467 37.6088 91.5987 37.7039 91.5146C37.799 91.4305 37.8615 91.3155 37.8802 91.19C37.8517 89.0166 37.7015 86.8465 37.4302 84.69ZM33.7602 147C33.6202 147.56 33.3702 150.94 33.1902 152.23C33.1053 152.708 33.1224 153.199 33.2402 153.67C33.4102 154.16 33.7802 154.17 34.0102 153.83C34.2873 153.251 34.4406 152.621 34.4602 151.98C34.5802 150.37 34.7002 148.75 34.8002 147.11C34.7929 146.985 34.7413 146.866 34.6546 146.775C34.5679 146.684 34.4518 146.627 34.3269 146.614C34.202 146.601 34.0765 146.632 33.9727 146.703C33.8689 146.774 33.7936 146.879 33.7602 147ZM10.8302 124.23C9.1104 124.078 7.37731 124.21 5.70022 124.62C4.52022 124.87 4.70022 125.92 5.56022 125.92C7.27962 125.56 9.02529 125.339 10.7802 125.26C10.906 125.25 11.0238 125.194 11.1116 125.103C11.1993 125.013 11.2511 124.893 11.2572 124.767C11.2634 124.641 11.2234 124.517 11.1448 124.418C11.0663 124.319 10.9544 124.252 10.8302 124.23ZM194.33 107.06C192.729 106.236 191.083 105.502 189.4 104.86C189.293 104.88 189.194 104.931 189.116 105.007C189.037 105.082 188.983 105.179 188.958 105.285C188.934 105.391 188.941 105.502 188.979 105.604C189.016 105.706 189.083 105.795 189.17 105.86C190.65 106.64 192.17 107.36 193.76 108.11C195.35 108.86 195.74 107.72 194.33 107.06ZM176.79 121.8C176.56 121.44 175.79 121.7 175.9 122.3C176.839 123.912 177.674 125.582 178.4 127.3C178.9 128.54 180.12 128.09 179.49 126.7C178.737 124.99 177.834 123.35 176.79 121.8ZM164.27 56.65C163.54 56.65 163.56 57.93 163.49 58.65C163.31 60.2908 163.29 61.9452 163.43 63.59C163.432 63.6946 163.465 63.7964 163.524 63.8824C163.584 63.9685 163.668 64.0349 163.765 64.0734C163.863 64.1119 163.969 64.1208 164.071 64.0988C164.174 64.0768 164.267 64.025 164.34 63.95C164.53 63.76 164.5 63.64 164.55 62.09C164.562 60.819 164.652 59.5499 164.82 58.29C164.88 57.85 164.99 57.2 164.71 56.88C164.661 56.8086 164.596 56.7504 164.519 56.7103C164.442 56.6702 164.357 56.6495 164.27 56.65ZM156.94 126.37L156.42 131.83C156.33 132.62 157.58 132.7 157.63 131.9C157.75 130.08 157.87 128.26 157.99 126.41C157.978 126.282 157.92 126.163 157.827 126.075C157.733 125.986 157.611 125.935 157.483 125.93C157.354 125.925 157.229 125.967 157.129 126.048C157.029 126.129 156.962 126.243 156.94 126.37ZM189 84.86C190.47 84.7 192.08 84.49 194.06 84.21C194.198 84.1663 194.317 84.0756 194.395 83.9537C194.473 83.8318 194.506 83.6863 194.488 83.5426C194.471 83.3988 194.403 83.2659 194.297 83.1668C194.192 83.0676 194.055 83.0086 193.91 83C193.54 83 189.71 83.67 188.86 83.8C188.791 83.8092 188.724 83.832 188.663 83.8671C188.602 83.9022 188.549 83.949 188.506 84.0047C188.42 84.1172 188.382 84.2594 188.4 84.4C188.419 84.5405 188.492 84.668 188.605 84.7542C188.717 84.8405 188.86 84.8785 189 84.86ZM185.16 66.72C184.02 68.15 182.86 69.58 181.71 71.01C181.28 71.54 182.1 72.17 182.54 71.66L186.13 67.48C186.65 66.85 185.64 66.14 185.16 66.72ZM34.4302 126.7C33.2602 126.09 31.8202 127.7 33.4302 128.89C34.6002 129.63 35.9402 127.49 34.4302 126.7ZM42.0002 124.15C42.0146 124.316 42.0618 124.477 42.1391 124.625C42.2163 124.773 42.3221 124.903 42.4502 125.01C42.6451 125.172 42.8833 125.272 43.135 125.3C43.3868 125.327 43.641 125.279 43.866 125.163C44.0909 125.047 44.2767 124.867 44.4002 124.646C44.5236 124.425 44.5793 124.172 44.5602 123.92C44.5505 123.759 44.5062 123.602 44.4302 123.46C44.3387 123.138 44.123 122.865 43.8304 122.702C43.5378 122.539 43.1925 122.498 42.8702 122.59C42.548 122.681 42.2753 122.897 42.1121 123.19C41.949 123.482 41.9087 123.828 42.0002 124.15Z" fill="black"/>
<path d="M184.31 91.9299C182.545 90.4961 180.702 89.1607 178.79 87.9299C179.04 87.0599 180.58 79.9999 180.58 79.4199C180.58 78.8399 173.14 78.2299 172.28 78.1899C171.302 75.92 170.59 73.544 170.16 71.1099C169.96 69.8699 163.81 74.2499 163.24 74.7299C161.05 73.0599 158.61 70.9899 156.32 69.5499C155.83 69.2399 151.97 75.7699 151.56 76.5499L146.25 76.4399C146.15 68.4399 146.25 60.2999 145.97 52.3699C145.58 41.0699 141.03 39.2899 131.39 39.2899C109.63 39.2899 87.4402 39.1199 65.4602 39.3499C54.2002 39.4699 49.3302 40.4199 49.2502 53.2799C49.1402 70.7799 49.4802 88.3499 49.5802 105.64C38.5802 94.1599 18.7402 100.28 16.2402 116.11C15.7816 118.869 15.9135 121.694 16.6272 124.399C17.3408 127.104 18.6199 129.626 20.3802 131.8C22.1437 133.95 24.3456 135.7 26.8388 136.932C29.3321 138.164 32.0594 138.85 34.8389 138.945C37.6184 139.04 40.3861 138.54 42.9574 137.481C45.5287 136.421 47.8444 134.825 49.7502 132.8C49.8435 141.86 49.9268 150.913 50.0002 159.96C50.0002 160.19 50.4002 160.2 50.4002 159.96C50.4602 150.68 50.4002 141.39 50.4002 132.12C58.6202 121.04 53.7602 110.9 50.2502 106.32C50.1602 88.6099 50.2502 70.7699 49.9302 53.0699C81.5202 53.7499 113.71 53.0099 145.36 52.9499L145.63 76.3899C144.71 76.3899 143.06 76.3899 143.15 76.8999C143.72 79.7099 144.15 82.5499 144.67 85.3599C143.49 85.8899 138.98 87.8199 139.14 88.5999C140.018 91.0561 141.172 93.4046 142.58 95.5999C141.381 97.6778 140.312 99.8287 139.38 102.04C139.2 102.58 145.17 103.12 145.87 103.22C145.7 105.4 145.38 108.15 145.43 110.22C145.43 110.55 145.81 110.54 146.05 110.51C146.24 127.18 146.4 143.83 146.73 160.51C146.73 160.81 147.17 160.76 147.17 160.51C147.17 143.84 146.88 127.16 146.68 110.51C148.46 110.31 150.38 110 152.14 109.87C153.08 111.96 154.9 115.66 155.69 115.71C156.21 115.71 161.59 111.01 162 110.71C162.07 110.89 168.76 114.47 170.07 115.04C170.81 115.37 172.39 108.29 172.64 107.37C173.32 107.37 180.75 106.66 180.56 106.05C179.56 103.05 179.26 100.17 178.46 97.3799C179.05 96.8399 184.68 92.2799 184.31 91.9299ZM44.4402 126.22C43.9137 126.507 43.2998 126.589 42.7165 126.45C42.1331 126.312 41.6216 125.963 41.2802 125.47C39.7102 126.11 38.0602 126.87 36.3802 127.47C36.4174 127.869 36.3586 128.271 36.2087 128.643C36.0587 129.014 35.8219 129.345 35.5181 129.606C35.2143 129.867 34.8524 130.052 34.4625 130.145C34.0727 130.238 33.6663 130.236 33.2773 130.14C32.8883 130.043 32.528 129.855 32.2267 129.591C31.9253 129.327 31.6915 128.994 31.5449 128.621C31.3984 128.248 31.3432 127.846 31.3842 127.447C31.4251 127.048 31.5609 126.665 31.7802 126.33C30.0902 124.33 26.7802 118.33 25.4002 115.49L21.5202 115.07C21.4158 115.055 21.3152 115.021 21.2243 114.967C21.1334 114.914 21.0538 114.843 20.9902 114.759C20.9266 114.675 20.8802 114.579 20.8536 114.477C20.827 114.375 20.8207 114.269 20.8352 114.165C20.8496 114.06 20.8845 113.96 20.9378 113.869C20.9911 113.778 21.0618 113.699 21.1458 113.635C21.2298 113.571 21.3256 113.525 21.4276 113.498C21.5295 113.472 21.6358 113.465 21.7402 113.48C23.3102 113.56 26.1602 113.48 26.4702 114.1L28.3102 117.29C32.4902 115.43 37.1002 113.56 41.3102 112.02C41.4328 111.977 41.563 111.961 41.6924 111.971C41.8218 111.982 41.9475 112.019 42.0615 112.082C42.1754 112.144 42.2751 112.229 42.3541 112.332C42.4331 112.435 42.4897 112.554 42.5202 112.68C42.5569 114.75 42.4668 116.821 42.2502 118.88C42.1002 119.46 34.4902 124.16 33.0702 125.03L33.2302 125.3C33.6565 125.184 34.1063 125.185 34.5321 125.303C34.9579 125.421 35.3441 125.651 35.6502 125.97C37.2302 125.2 38.8302 124.56 40.6502 123.79C40.6462 123.426 40.7199 123.066 40.8663 122.732C41.0126 122.399 41.2283 122.101 41.4989 121.858C41.7696 121.615 42.0889 121.432 42.4357 121.322C42.7825 121.212 43.1488 121.177 43.5102 121.22C44.0892 121.263 44.6377 121.496 45.0701 121.884C45.5026 122.271 45.7946 122.791 45.9008 123.362C46.007 123.933 45.9213 124.522 45.6571 125.039C45.3929 125.556 44.965 125.972 44.4402 126.22ZM96.6202 45.8499C96.6202 43.2899 100.57 42.7299 101.3 45.2499C102.37 48.8999 96.6102 49.6399 96.6202 45.8499ZM150.84 88.5099C148.72 84.1799 155.33 80.6099 157.76 85.0499C160.19 89.4899 153.14 93.1899 150.84 88.5099ZM155.49 100.28C154.9 101.12 153.56 100.36 154.11 99.4599C157.31 94.2499 161.5 87.5499 165.54 82.0199C166.2 81.1099 167.66 81.9299 167.07 82.9299C163.75 88.5199 159.35 94.8399 155.49 100.28ZM170.24 99.2799C168.97 103.92 161.34 102.51 162.55 97.2799C163.68 92.2199 171.67 94.0499 170.24 99.2799Z" fill="black"/>
</svg>
